<svg xmlns="http://www.w3.org/2000/svg" enable-background="new 0 0 2000 2000" viewBox="0 0 2000 2000" id="prayer-beads">
  <circle cx="1235.66" cy="561.36" r="86.76" fill="#FFF"></circle>
  <path d="M1235.66,658.18c-53.39,0-96.82-43.44-96.82-96.82s43.44-96.82,96.82-96.82c53.39,0,96.82,43.44,96.82,96.82
			S1289.05,658.18,1235.66,658.18z M1235.66,484.67c-42.29,0-76.69,34.4-76.69,76.69c0,42.29,34.4,76.69,76.69,76.69
			s76.69-34.4,76.69-76.69C1312.35,519.07,1277.95,484.67,1235.66,484.67z"></path>
  <circle cx="1061.97" cy="575.53" r="86.76" fill="#FFF"></circle>
  <path d="M1061.97,672.36c-53.39,0-96.82-43.44-96.82-96.82s43.44-96.82,96.82-96.82c53.39,0,96.82,43.44,96.82,96.82
			S1115.36,672.36,1061.97,672.36z M1061.97,498.85c-42.29,0-76.69,34.4-76.69,76.69c0,42.29,34.4,76.69,76.69,76.69
			s76.69-34.4,76.69-76.69C1138.66,533.25,1104.26,498.85,1061.97,498.85z"></path>
  <circle cx="932.39" cy="693.82" r="86.76" fill="#FFF" transform="rotate(-45.001 932.388 693.832)"></circle>
  <path d="M932.39,790.64c-53.39,0-96.82-43.44-96.82-96.82s43.44-96.82,96.82-96.82s96.82,43.44,96.82,96.82
			S985.78,790.64,932.39,790.64z M932.39,617.13c-42.29,0-76.69,34.4-76.69,76.69c0,42.29,34.4,76.69,76.69,76.69
			c42.29,0,76.69-34.4,76.69-76.69C1009.08,651.53,974.68,617.13,932.39,617.13z"></path>
  <circle cx="873.5" cy="855.38" r="86.76" fill="#FFF"></circle>
  <path d="M873.5,952.21c-53.39,0-96.82-43.44-96.82-96.82s43.44-96.82,96.82-96.82s96.82,43.44,96.82,96.82
			S926.89,952.21,873.5,952.21z M873.5,778.7c-42.29,0-76.69,34.4-76.69,76.69c0,42.29,34.4,76.69,76.69,76.69
			c42.29,0,76.69-34.4,76.69-76.69C950.19,813.1,915.79,778.7,873.5,778.7z"></path>
  <path fill="#FFF" d="M781.17,991.09c15.22-25.49,43.15-42.51,75.03-42.33c47.19,0.26,85.83,38.75,86.26,85.94
				c0.44,47.87-37.89,86.88-85.49,87.56c-48.02,0.68-87.8-38.33-88.01-86.36c-0.05-12.12,2.38-23.67,6.82-34.16"></path>
  <path d="M856.46,1132.33c-53.73,0.41-97.58-43.18-97.58-96.82c0-9.24,1.28-18.29,3.82-27.02c1.69-5.81,8.04-8.87,13.61-6.51l0,0
				c4.72,1.99,7.16,7.21,5.73,12.12c-2.01,6.91-3.02,14.08-3.02,21.41c0,43.29,36.06,78.32,79.72,76.63
				c39.8-1.54,72.06-33.8,73.6-73.6c1.69-43.66-33.34-79.72-76.63-79.72c-13.52,0-26.8,3.56-38.41,10.3
				c-8.71,5.05-16.34,11.78-22.45,19.74c-3.11,4.05-8.77,5.16-13.16,2.53l0,0c-5.18-3.09-6.5-10-2.83-14.78
				c7.71-10.04,17.35-18.53,28.33-24.9c14.68-8.52,31.46-13.02,48.52-13.02c53.64,0,97.23,43.84,96.82,97.58
				C952.12,1088.93,909.12,1131.92,856.46,1132.33z"></path>
  <circle cx="996.88" cy="1217.46" r="86.76" fill="#FFF"></circle>
  <path d="M996.88,1314.28c-53.39,0-96.82-43.44-96.82-96.82c0-53.39,43.44-96.82,96.82-96.82c53.39,0,96.83,43.44,96.83,96.82
			C1093.7,1270.85,1050.27,1314.28,996.88,1314.28z M996.88,1140.77c-42.29,0-76.69,34.4-76.69,76.69s34.4,76.69,76.69,76.69
			s76.69-34.4,76.69-76.69S1039.16,1140.77,996.88,1140.77z"></path>
  <circle cx="1381.31" cy="656.78" r="86.76" fill="#FFF"></circle>
  <path d="M1381.31,753.6c-53.39,0-96.82-43.44-96.82-96.82s43.44-96.82,96.82-96.82c53.39,0,96.82,43.44,96.82,96.82
			S1434.7,753.6,1381.31,753.6z M1381.31,580.09c-42.29,0-76.69,34.4-76.69,76.69c0,42.29,34.4,76.69,76.69,76.69
			s76.69-34.4,76.69-76.69C1458,614.49,1423.6,580.09,1381.31,580.09z"></path>
  <circle cx="1434.66" cy="822.32" r="86.76" fill="#FFF"></circle>
  <path d="M1434.66,919.14c-53.39,0-96.82-43.44-96.82-96.82s43.44-96.82,96.82-96.82c53.39,0,96.82,43.44,96.82,96.82
			S1488.05,919.14,1434.66,919.14z M1434.66,745.63c-42.29,0-76.69,34.4-76.69,76.69s34.4,76.69,76.69,76.69s76.69-34.4,76.69-76.69
			S1476.94,745.63,1434.66,745.63z"></path>
  <path fill="#FFF" d="M674.36,1368.51l-37.37-41.99c-8.25-9.28-7.22-23.31,2.3-31.34l67.78-57.19
			c9.52-8.03,23.94-7.03,32.19,2.24l37.37,41.99c8.25,9.28,7.22,23.31-2.3,31.34l-67.78,57.19
			C697.02,1378.79,682.61,1377.79,674.36,1368.51z"></path>
  <path d="M691.64,1386.21c-9.18,0-18.32-3.73-24.8-11.01l0,0l-37.37-41.99c-5.8-6.53-8.66-14.88-8.04-23.51
			c0.62-8.67,4.66-16.55,11.37-22.22l67.78-57.19c13.65-11.51,34.37-10.06,46.2,3.25l37.36,41.99c5.8,6.53,8.66,14.88,8.04,23.51
			c-0.62,8.67-4.66,16.56-11.37,22.22l-67.78,57.19C706.86,1383.66,699.23,1386.21,691.64,1386.21z M681.88,1361.82
			c4.65,5.22,12.8,5.78,18.17,1.24l67.78-57.19c2.52-2.13,4.04-5.06,4.27-8.27c0.23-3.17-0.84-6.26-3-8.69l-37.36-41.99
			c-4.64-5.22-12.79-5.78-18.17-1.24l-67.78,57.19c-2.52,2.13-4.04,5.06-4.27,8.26c-0.23,3.17,0.84,6.26,3,8.69L681.88,1361.82
			L681.88,1361.82z"></path>
  <circle cx="1434.66" cy="1000.32" r="86.76" fill="#FFF"></circle>
  <path d="M1434.66,1097.15c-53.39,0-96.82-43.44-96.82-96.82c0-53.39,43.44-96.82,96.82-96.82c53.39,0,96.82,43.44,96.82,96.82
			C1531.48,1053.71,1488.05,1097.15,1434.66,1097.15z M1434.66,923.63c-42.29,0-76.69,34.4-76.69,76.69
			c0,42.29,34.4,76.69,76.69,76.69s76.69-34.4,76.69-76.69C1511.35,958.04,1476.94,923.63,1434.66,923.63z"></path>
  <circle cx="1339.56" cy="1154.92" r="86.76" fill="#FFF"></circle>
  <path d="M1339.56,1251.74c-53.39,0-96.82-43.44-96.82-96.82s43.44-96.82,96.82-96.82c53.39,0,96.82,43.44,96.82,96.82
			S1392.95,1251.74,1339.56,1251.74z M1339.56,1078.23c-42.29,0-76.69,34.4-76.69,76.69s34.4,76.69,76.69,76.69
			s76.69-34.4,76.69-76.69S1381.84,1078.23,1339.56,1078.23z"></path>
  <circle cx="1174.24" cy="1232.82" r="86.76" fill="#FFF"></circle>
  <path d="M1174.24,1329.64c-53.39,0-96.82-43.44-96.82-96.82c0-53.39,43.44-96.82,96.82-96.82c53.39,0,96.82,43.44,96.82,96.82
			C1271.06,1286.21,1227.62,1329.64,1174.24,1329.64z M1174.24,1156.13c-42.29,0-76.69,34.4-76.69,76.69s34.4,76.69,76.69,76.69
			c42.29,0,76.69-34.4,76.69-76.69S1216.52,1156.13,1174.24,1156.13z"></path>
  <circle cx="814.72" cy="1209.02" r="86.76" fill="#FFF"></circle>
  <path d="M814.72,1305.85c-53.39,0-96.82-43.44-96.82-96.82s43.44-96.82,96.82-96.82s96.82,43.44,96.82,96.82
			S868.11,1305.85,814.72,1305.85z M814.72,1132.33c-42.29,0-76.69,34.4-76.69,76.69s34.4,76.69,76.69,76.69s76.69-34.4,76.69-76.69
			S857.01,1132.33,814.72,1132.33z"></path>
  <g>
    <path fill="#FFF" d="M553.68,1517.15l-78.36-88.07c-13.97-15.69-1.69-44.48,23.21-54.42l132.89-53.05l48.73,53.42
			l-66.68,125.43C600.76,1524.38,568.2,1533.47,553.68,1517.15z"></path>
    <path d="M573.72,1535.47c-11.03,0-20.87-4.1-27.57-11.62l0,0l-78.36-88.06c-7.48-8.4-10.13-20.16-7.27-32.26
			c3.94-16.7,17.07-31.33,34.27-38.2l139.36-55.64l58.21,63.81l-70.01,131.69c-8.54,16.07-25.46,27.83-43.11,29.95
			C577.38,1535.36,575.54,1535.47,573.72,1535.47z M561.2,1510.46c4.59,5.15,11.77,5.14,15.65,4.68
			c11.13-1.34,22.27-9.13,27.73-19.4l63.35-119.16l-39.25-43.02l-126.42,50.47c-11.03,4.4-19.72,13.87-22.14,24.12
			c-0.95,4.04-1.26,9.79,2.71,14.25L561.2,1510.46z"></path>
  </g>
  <g>
    <line x1="520.93" x2="543.82" y1="1475.08" y2="1456.52" fill="none"></line>
    <path d="M520.93,1475.08L520.93,1475.08c-3.2-3.75-2.68-9.31,1.17-12.42l8.96-7.27c3.85-3.12,9.56-2.61,12.76,1.13l0,0
				c3.2,3.75,2.68,9.31-1.17,12.42l-8.97,7.27C529.84,1479.34,524.13,1478.83,520.93,1475.08z"></path>
  </g>
  <g>
    <line x1="488.91" x2="560.13" y1="1444.55" y2="1385.78" fill="none"></line>
    <path d="M488.91,1444.55L488.91,1444.55c-3.24-3.72-2.77-9.28,1.05-12.44l57.4-47.36c3.82-3.15,9.54-2.69,12.77,1.03l0,0
				c3.24,3.72,2.77,9.28-1.05,12.44l-57.4,47.36C497.86,1448.73,492.15,1448.27,488.91,1444.55z"></path>
  </g>
  <g>
    <path d="M1423.43,677.24L1423.43,677.24c-2.91-2.91-3.7-7.26-2.15-11.06c3.07-7.54,2.13-18.51-2.91-28.63
				c-6.83-13.73-16.14-17.96-22.86-19.07c-4.4-0.72-7.85-4.15-8.46-8.57l-0.01-0.07c-0.93-6.68,4.85-12.39,11.51-11.35
				c15.6,2.44,29.45,13.2,37.85,30.09c7.8,15.67,8.84,32.38,3.49,45.32C1437.14,680.57,1428.53,682.33,1423.43,677.24z"></path>
  </g>
</svg>
